<?xml version="1.0" standalone="no"?>
<!DOCTYPE svg PUBLIC "-//W3C//DTD SVG 20010904//EN"
 "http://www.w3.org/TR/2001/REC-SVG-20010904/DTD/svg10.dtd">
<svg version="1.0" xmlns="http://www.w3.org/2000/svg"
 width="1084.000000pt" height="1084.000000pt" viewBox="0 0 1084.000000 1084.000000"
 preserveAspectRatio="xMidYMid meet">
<metadata>
Created by potrace 1.11, written by Peter Selinger 2001-2013
</metadata>
<g transform="translate(0.000000,1084.000000) scale(0.100000,-0.100000)"
fill="#000000" stroke="none">
<path d="M5429 10835 c-2 -1 -47 -6 -100 -9 -89 -6 -114 -8 -224 -21 -22 -3
-65 -8 -95 -11 -84 -9 -270 -41 -428 -75 -349 -74 -719 -194 -1062 -345 -190
-83 -674 -344 -735 -396 -5 -5 -48 -34 -95 -65 -454 -298 -984 -801 -1308
-1243 -18 -25 -48 -65 -66 -90 -174 -237 -402 -631 -526 -910 -76 -170 -82
-184 -117 -275 -146 -377 -240 -721 -302 -1105 -20 -122 -23 -141 -36 -265 -4
-33 -9 -71 -11 -85 -11 -71 -19 -294 -19 -530 0 -273 6 -388 30 -604 9 -84 44
-322 49 -337 3 -8 7 -30 10 -49 4 -29 19 -103 41 -200 56 -253 194 -690 270
-857 8 -17 15 -33 15 -36 0 -20 207 -443 269 -550 28 -49 51 -90 51 -93 0 -4
188 -301 202 -319 4 -5 47 -64 94 -130 71 -99 232 -306 254 -325 3 -3 34 -39
69 -80 159 -185 525 -528 751 -704 135 -105 419 -295 585 -392 202 -117 693
-354 735 -354 6 0 27 -8 48 -18 118 -60 677 -224 872 -257 19 -4 73 -13 120
-21 47 -9 96 -17 110 -19 14 -2 42 -6 63 -9 73 -12 104 -15 168 -21 35 -4 75
-8 88 -10 163 -27 827 -27 1051 0 19 3 58 7 85 10 110 12 141 16 155 20 8 2
42 7 75 11 33 3 63 8 66 10 3 2 21 6 40 9 92 15 192 35 199 40 4 2 22 6 41 9
74 9 384 96 564 158 100 34 343 128 414 160 95 43 408 198 471 233 69 39 278
165 295 178 6 4 48 33 95 64 77 51 389 282 416 307 6 6 37 34 70 61 227 192
526 498 667 682 212 276 268 654 146 986 -101 278 -314 496 -593 607 -43 17
-86 33 -95 35 -9 2 -38 9 -66 15 -135 31 -330 30 -450 -1 -22 -6 -47 -13 -55
-14 -8 -2 -44 -15 -80 -28 -177 -66 -296 -152 -455 -332 -373 -423 -795 -724
-1290 -922 -261 -105 -459 -159 -745 -204 -180 -28 -277 -34 -525 -33 -276 1
-418 15 -682 68 -124 25 -445 125 -546 170 -29 13 -68 29 -87 36 -64 25 -313
156 -410 215 -318 197 -623 466 -851 750 -181 226 -338 483 -449 735 -23 52
-45 104 -50 115 -26 56 -106 302 -134 410 -26 102 -60 273 -71 355 -3 25 -8
56 -10 70 -13 72 -19 207 -20 395 0 232 6 338 30 495 23 151 23 151 60 305
108 450 317 887 601 1256 123 160 308 355 454 480 41 35 77 67 80 70 16 17
180 136 270 194 58 38 116 76 130 85 14 9 57 34 95 54 39 20 77 41 85 45 175
95 473 208 695 265 170 43 379 79 538 94 105 9 521 8 612 -1 129 -14 259 -35
435 -72 8 -1 35 -8 60 -15 25 -7 50 -13 55 -14 80 -18 333 -104 430 -146 74
-33 300 -145 347 -172 31 -18 82 -48 113 -66 87 -51 282 -192 391 -283 108
-90 297 -276 384 -378 131 -153 225 -228 370 -299 636 -309 1389 94 1483 793
17 124 12 273 -12 353 -5 17 -8 32 -6 32 3 0 -9 39 -26 88 -76 216 -178 352
-519 692 -272 272 -483 445 -851 695 -42 29 -80 54 -85 56 -5 2 -70 40 -144
84 -487 290 -1073 517 -1630 630 -166 33 -216 42 -273 50 -27 4 -57 8 -66 10
-10 2 -42 6 -72 10 -30 3 -65 8 -79 10 -14 2 -61 7 -105 11 -44 4 -93 9 -110
11 -37 5 -692 13 -696 8z"/>
</g>
</svg>
