<?xml version="1.0" encoding="UTF-8" standalone="no"?>
<svg
   xmlns:dc="http://purl.org/dc/elements/1.1/"
   xmlns:cc="http://creativecommons.org/ns#"
   xmlns:rdf="http://www.w3.org/1999/02/22-rdf-syntax-ns#"
   xmlns:svg="http://www.w3.org/2000/svg"
   xmlns="http://www.w3.org/2000/svg"
   xmlns:sodipodi="http://sodipodi.sourceforge.net/DTD/sodipodi-0.dtd"
   xmlns:inkscape="http://www.inkscape.org/namespaces/inkscape"
   width="210mm"
   height="297mm"
   viewBox="0 0 210 297"
   version="1.1"
   id="svg8"
   inkscape:version="1.0.2 (e86c870879, 2021-01-15)"
   sodipodi:docname="mooncup_michelle.svg"
   inkscape:export-filename="/home/max/Downloads/drawing.png"
   inkscape:export-xdpi="177.17"
   inkscape:export-ydpi="177.17">
  <defs
     id="defs2" />
  <sodipodi:namedview
     id="base"
     pagecolor="#ffffff"
     bordercolor="#666666"
     borderopacity="1.0"
     inkscape:pageopacity="0.0"
     inkscape:pageshadow="2"
     inkscape:zoom="0.49497475"
     inkscape:cx="17.36213"
     inkscape:cy="555.9549"
     inkscape:document-units="mm"
     inkscape:current-layer="helper"
     inkscape:document-rotation="0"
     showgrid="false"
     inkscape:lockguides="false"
     inkscape:window-width="956"
     inkscape:window-height="1051"
     inkscape:window-x="960"
     inkscape:window-y="25"
     inkscape:window-maximized="1" />
  <metadata
     id="metadata5">
    <rdf:RDF>
      <cc:Work
         rdf:about="">
        <dc:format>image/svg+xml</dc:format>
        <dc:type
           rdf:resource="http://purl.org/dc/dcmitype/StillImage" />
        <dc:title />
      </cc:Work>
    </rdf:RDF>
  </metadata>
  <g
     inkscape:groupmode="layer"
     id="bg"
     inkscape:label="bg"
     style="display:inline">
    <rect
       style="fill:#000964;fill-opacity:1;stroke:none;stroke-width:0.580442;stroke-miterlimit:4;stroke-dasharray:none;stroke-opacity:1"
       id="rect891"
       width="220.39388"
       height="304.81885"
       x="-6.27881"
       y="-0.60117018" />
  </g>
  <g
     inkscape:label="helper"
     inkscape:groupmode="layer"
     id="helper"
     style="display:none" />
  <g
     inkscape:groupmode="layer"
     id="hand_right"
     inkscape:label="hand_right"
     style="display:inline">
    <path
       style="display:inline;fill:#e5b787;fill-opacity:1;stroke:#e6caa7;stroke-width:0.723501;stroke-linecap:butt;stroke-linejoin:miter;stroke-miterlimit:4;stroke-dasharray:none;stroke-opacity:1"
       d="m 117.84014,-1.4107206 c 6.09201,19.3238716 10.68649,38.2966756 15.9042,57.4155856 l 47.96161,83.118795 8.50591,-25.32009 c -1.59138,-5.16002 0.97956,2.44793 -4.81499,-15.605311 l 2.12902,2.579141 c 1.01001,0.58157 1.8381,0.97125 3.27595,1.40824 3.17489,0.91399 3.61007,-0.17601 3.16298,-1.91134 -4.59185,-6.882601 -6.9168,-14.260873 -10.16206,-22.229187 -1.24666,-3.101294 -2.26908,-5.578065 -3.94963,-9.887883 -3.02747,-7.350073 -7.3213,-15.61036 -11.93117,-23.867957 -5.37363,-9.49041 -13.98959,-20.635664 -20.99869,-30.960803 -0.90557,-2.648306 -1.59034,-6.0188276 -2.23711,-9.3437376 l -1.82031,-9.916649 -26.2072,-1.260203 z"
       id="path929"
       sodipodi:nodetypes="cccccccccccccccc" />
    <path
       style="fill:none;stroke:#e6caa7;stroke-width:0.723501;stroke-linecap:butt;stroke-linejoin:miter;stroke-miterlimit:4;stroke-dasharray:none;stroke-opacity:1"
       d="m 175.36439,66.484532 c 0.38601,2.03233 0.80151,4.036171 1.40707,5.856392 3.23586,6.580169 5.47403,13.2473 7.71646,19.91406 l 0.54668,4.163927 1.16923,3.504975"
       id="path931"
       sodipodi:nodetypes="ccccc" />
    <path
       style="fill:none;stroke:#e6caa7;stroke-width:0.723501;stroke-linecap:butt;stroke-linejoin:miter;stroke-miterlimit:4;stroke-dasharray:none;stroke-opacity:1"
       d="m 169.61638,64.681622 c -0.0422,5.36049 0.27955,10.609264 1.62082,15.544998 1.36383,3.395312 2.44716,6.717943 2.83534,9.860453"
       id="path933"
       sodipodi:nodetypes="ccc" />
    <ellipse
       style="fill:#ebc595;fill-opacity:1;stroke:#e6caa7;stroke-width:0.723502;stroke-miterlimit:4;stroke-dasharray:none;stroke-opacity:1"
       id="path937"
       cx="159.56665"
       cy="71.179604"
       rx="0.25124407"
       ry="0.60506225" />
  </g>
  <g
     inkscape:groupmode="layer"
     id="layer3"
     inkscape:label="leg_left"
     style="display:inline">
    <path
       style="display:inline;fill:#e8b287;fill-opacity:1;stroke:#e6caa7;stroke-width:0.723501;stroke-linecap:butt;stroke-linejoin:miter;stroke-miterlimit:4;stroke-dasharray:none;stroke-opacity:1"
       d="m 132.26339,147.3032 c -15.1854,-6.918 -10.29715,-5.62595 -23.1973,-12.91269 -6.24145,-4.78762 -11.053881,-7.68858 -19.312464,-15.13929 C 72.211411,105.77904 55.507506,92.521441 38.920533,79.293768 35.428002,77.634525 33.059993,76.55283 30.544424,75.39535 c 6.976908,13.555702 12.909259,26.79774 14.838007,38.83757 1.372093,6.34645 2.789723,12.70369 5.620568,19.39538 8.259809,20.44261 21.916562,38.60217 33.086366,51.50793 4.605113,7.23979 4.536728,13.69507 -1.358482,19.17226 -64.944927,53.74764 -31.924369,55.1899 -47.886553,82.78485 -2.835857,12.05328 -4.891774,21.88164 -5.910591,28.75147 -3.628125,33.538 -8.065209,37.36168 -12.2984,48.6747 l 35.565799,0.64376 c -3.111321,-35.07885 38.267803,-56.81472 55.086622,-102.01904 3.22293,-7.68014 8.29278,-16.87627 14.71183,-24.55641 13.17859,-12.71933 20.26284,-23.59683 21.71405,-34.11437 0.32702,-8.18852 2.00731,-10.93169 -4.56968,-32.76811 z"
       id="path875"
       sodipodi:nodetypes="cccccccccccccccccc" />
  </g>
  <g
     inkscape:groupmode="layer"
     id="hand"
     inkscape:label="hand"
     style="display:inline" />
  <g
     inkscape:groupmode="layer"
     id="blood_stream"
     inkscape:label="blood_stream"
     style="display:inline">
    <path
       style="display:inline;fill:#cf2026;fill-opacity:1;stroke:#8e0005;stroke-width:0.706292;stroke-linecap:butt;stroke-linejoin:miter;stroke-miterlimit:4;stroke-dasharray:none;stroke-opacity:1"
       d="m 80.595722,73.208718 c 8.807676,-0.658509 17.873582,3.921375 23.918468,26.995782 1.93998,8.45364 3.02523,16.59913 4.11001,24.88264 1.77864,13.58179 1.55832,28.45368 1.25178,42.23241 -0.50359,22.63619 -2.06534,45.12148 -9.83232,66.15691 -6.422757,17.76958 -8.072926,34.94167 -8.636807,51.97773 1.442437,10.26634 3.115244,20.41915 7.302261,29.33324 l 3.194656,9.11592 -116.532684,0.14161 0.704891,-15.44668 c 0.827292,-29.98595 14.59761198,-54.34035 31.133406,-77.49148 19.363487,-23.08827 37.281534,-46.49194 51.972771,-71.07071 2.46301,-6.09278 5.684373,-11.21941 8.016915,-17.34649 3.892494,-10.22475 8.440026,-22.24004 10.579857,-35.81055 2.411363,-15.483068 0.05109,-23.315659 -3.50108,-29.237247 z"
       id="path848"
       sodipodi:nodetypes="ccssccccccccsccc"
       inkscape:label="yellow" />
    <path
       style="display:inline;fill:#bb000c;fill-opacity:1;stroke:#8e0005;stroke-width:0.706292;stroke-linecap:butt;stroke-linejoin:miter;stroke-miterlimit:4;stroke-dasharray:none;stroke-opacity:1"
       d="m 80.595722,73.208715 c 12.489941,-0.629307 18.525412,9.47153 20.972288,26.367737 0.65058,6.823868 1.22722,13.673608 1.62589,20.585638 0.90053,11.15743 1.03525,23.74337 1.36766,35.96058 -0.0497,18.56348 -1.63242,39.10353 -12.090454,71.08653 -5.488702,21.57002 -11.136261,43.08141 -10.17734,65.53956 1.500577,11.37952 5.020889,19.09089 7.862916,27.48179 0,0 -97.625701,1.40873 -97.349929,0.54574 0.17622,-0.55148 0.66614,-15.93932 0.914437,-16.55861 8.940458,-50.46984 33.492619,-68.09215 45.998815,-88.42623 39.442826,-50.33137 48.166441,-90.89192 50.104037,-105.28103 0.01542,-10.803428 2.937068,-21.368648 -5.546196,-32.868617 z"
       id="path854"
       sodipodi:nodetypes="cccccccsccccc"
       inkscape:label="red" />
    <path
       style="display:inline;fill:#a0000b;fill-opacity:1;stroke:#8e0005;stroke-width:0.706292;stroke-linecap:butt;stroke-linejoin:miter;stroke-miterlimit:4;stroke-dasharray:none;stroke-opacity:1"
       d="M 79.425843,319.69715 75.686379,305.52641 C 72.166807,285.63615 72.326524,264.78909 78.894264,244.67965 89.754212,205.07932 99.128068,165.24028 99.81081,124.00524 99.179096,106.30354 102.04532,76.036667 81.795595,74.677442 l 1.545873,1.843899 c 3.66216,1.898299 7.533512,1.966244 9.859851,15.551851 2.859942,39.889628 -7.488051,72.026748 -25.730344,101.862548 -12.951234,25.39734 -26.726355,47.31286 -35.448727,65.87895 -7.553642,16.07838 -10.054034,30.56695 -10.93,34.49877 -0.752002,4.41092 -2.837977,19.1513 -2.82883,22.96032 l 0.249003,3.7852 z"
       id="path852"
       sodipodi:nodetypes="ccccccccscccc"
       inkscape:label="purple" />
  </g>
  <g
     inkscape:groupmode="layer"
     id="leg_right"
     inkscape:label="leg_right"
     style="display:inline">
    <path
       style="display:inline;fill:#e7b488;fill-opacity:1;stroke:#e6caa7;stroke-width:0.723501;stroke-linecap:butt;stroke-linejoin:miter;stroke-miterlimit:4;stroke-dasharray:none;stroke-opacity:1"
       d="m 171.02541,365.31871 c -1.98629,-5.21063 -2.52095,-11.3656 -3.78707,-17.56868 -0.66631,-9.03777 -1.63435,-18.10589 -4.32215,-29.66094 -3.70232,-19.19355 -10.95876,-44.84128 -12.0654,-56.96998 -0.65075,-15.37895 -2.67734,-28.21295 9.55692,-67.42579 1.46106,-4.75993 2.89949,-9.32931 4.84774,-18.19306 0.64916,-6.78675 -2.6124,-13.73307 -15.70993,-19.96609 -10.36304,-5.78434 -22.20323,-10.44369 -31.62705,-15.97389 C 109.15295,134.9089 101.09876,129.17285 93.27481,123.08572 84.943334,115.54235 75.643904,107.9849 65.65821,100.41745 61.751573,96.828998 48.787483,87.038974 38.678813,79.204034 34.503396,76.769589 32.674194,76.442402 30.270324,75.599075 17.773706,72.616261 3.5326021,67.156814 -6.7535954,65.728748 L -7.1608359,-6.9191326 49.165377,-7.7112096 89.995353,3.9850574 C 102.89187,9.6186244 114.1315,17.843547 124.82049,26.929656 l 63.98187,82.205744 c 4.71631,8.01212 10.39342,15.11364 16.16963,22.12123 3.90251,4.8775 6.94085,8.25564 10.0684,11.78854 7.88637,12.18403 5.4656,20.82743 2.74954,28.71423 -1.16463,3.73137 -2.32925,11.34309 -3.49388,22.69589 -0.63816,10.28968 -1.02281,18.34201 -0.76299,25.39119 0.98772,32.3333 1.79143,28.2554 2.49793,40.21935 1.66073,10.35519 1.35483,20.59937 1.19835,30.67402 -0.71494,5.61588 -2.64625,27.11514 -4.60587,46.41809 -0.39261,10.16526 -0.38731,19.04371 -0.28648,28.11445 z"
       id="path881"
       sodipodi:nodetypes="cccccccccccccccccccccccccccc" />
  </g>
  <g
     inkscape:groupmode="layer"
     id="cup"
     inkscape:label="cup"
     style="display:inline">
    <g
       aria-label="Cyla"
       id="text872"
       style="font-size:10.5833px;line-height:1.25;font-family:sans-serif;letter-spacing:0px;word-spacing:0px;fill:#ffffff;fill-opacity:1;stroke-width:0.264583"
       transform="translate(12.029758,66.43761)">
      <path
         d="m 64.847702,118.69861 q 2.263428,0 4.371826,0.99219 0.992188,0.46508 1.379761,0.46508 0.279053,0 0.89917,-0.13952 0.201538,-0.0465 0.449585,-0.0465 0.806152,0 1.410766,0.74414 1.488282,1.79834 1.488282,4.46484 0,1.87586 -1.286743,2.74402 -0.697632,0.46509 -1.565796,0.46509 -0.79065,0 -1.286744,-0.34107 -0.496093,-0.34106 -0.961181,-1.20922 -0.666626,-1.22473 -1.085205,-1.75183 -0.418579,-0.54261 -1.023194,-0.97669 -1.503784,-1.0542 -3.147094,-1.0542 -1.596802,0 -2.542481,1.16272 -0.930176,1.14722 -0.930176,3.08508 0,2.66651 1.348755,4.88343 1.829346,2.96106 5.239991,2.96106 1.255737,0 2.480468,-0.41858 1.240235,-0.41858 1.922364,-1.08521 0.589111,-0.5581 0.961181,-0.5581 0.542603,0 0.930176,0.51159 0.387573,0.4961 0.387573,1.20923 0,0.89917 -0.542602,2.01538 -0.542603,1.11621 -1.302246,1.75183 -0.325562,0.26355 -1.348755,0.46509 -0.589112,0.10852 -1.565796,0.57361 -2.294434,1.10071 -4.774903,1.10071 -2.588989,0 -5.162475,-1.16272 -2.992066,-1.34876 -4.728394,-4.13928 -1.705322,-2.71302 -1.705322,-5.67408 0,-3.44165 2.139404,-6.27868 1.860352,-2.46497 4.852417,-3.76721 2.278931,-0.99219 4.697388,-0.99219 z"
         style="font-style:normal;font-variant:normal;font-weight:normal;font-stretch:normal;font-size:31.75px;font-family:'Cooper Black';-inkscape-font-specification:'Cooper Black, Normal';font-variant-ligatures:normal;font-variant-caps:normal;font-variant-numeric:normal;font-variant-east-asian:normal;fill:#ffffff;fill-opacity:1;stroke-width:0.264583"
         id="path882" />
      <path
         d="m 90.629074,132.48071 -2.046387,5.62757 q -0.759643,2.09289 -1.53479,3.41064 -0.759643,1.33325 -1.736328,2.26343 -2.015381,1.92236 -4.852417,1.92236 -2.294433,0 -3.720703,-1.20923 -1.100708,-0.93017 -1.100708,-2.37194 0,-1.19373 0.759644,-1.99988 0.775146,-0.82166 1.891357,-0.82166 1.116211,0 1.79834,0.74414 0.325561,0.34107 0.434082,0.60462 0.10852,0.26355 0.325561,1.16272 0.170533,0.68213 0.775147,0.68213 0.480591,0 0.806152,-0.41858 0.325562,-0.41858 0.325562,-1.0387 0,-0.72864 -0.806153,-2.43396 l -3.736206,-7.953 q -0.589111,-1.24024 -0.883667,-1.5503 -0.294555,-0.31005 -1.302246,-0.75964 -0.310058,-0.12402 -0.542602,-0.48059 -0.217041,-0.37207 -0.217041,-0.71313 0,-1.37977 2.744018,-1.87586 1.829346,-0.32556 4.170288,-0.32556 1.643311,0 2.58899,0.34106 1.27124,0.44959 1.27124,1.53479 0,0.38758 -0.356567,0.91468 -0.341065,0.49609 -0.341065,0.88366 0,0.37207 0.155029,0.77515 0.170533,0.40308 0.697632,1.36426 0.589112,1.0852 1.038696,1.0852 0.480591,0 0.992188,-0.94568 0.511597,-0.96118 0.511597,-1.84484 0,-0.71314 -0.387574,-1.16272 -0.589111,-0.69764 -0.589111,-1.19373 0,-0.79065 1.054199,-1.25574 1.0542,-0.48059 2.821534,-0.48059 3.286621,0 3.286621,1.5813 0,0.57361 -0.341065,0.93018 -0.325561,0.34106 -1.209228,0.65112 -0.744141,0.27905 -1.178223,0.93018 -0.682129,1.03869 -1.565796,3.42614 z"
         style="font-style:normal;font-variant:normal;font-weight:normal;font-stretch:normal;font-size:31.75px;font-family:'Cooper Black';-inkscape-font-specification:'Cooper Black, Normal';font-variant-ligatures:normal;font-variant-caps:normal;font-variant-numeric:normal;font-variant-east-asian:normal;fill:#ffffff;fill-opacity:1;stroke-width:0.264583"
         id="path884" />
      <path
         d="m 103.55852,128.00037 v 4.97644 q 0,3.30212 0.093,3.84472 0.10852,0.54261 0.77514,0.83716 0.57361,0.24805 0.75965,0.46509 0.20153,0.21704 0.20153,0.62012 0,0.51159 -0.37207,0.93017 -0.35656,0.41858 -0.96118,0.58911 -1.11621,0.34107 -3.76721,0.34107 -2.992066,0 -4.201295,-0.44959 -0.558105,-0.20154 -0.914673,-0.62011 -0.356567,-0.43409 -0.356567,-0.89917 0,-0.37207 0.186035,-0.57361 0.201538,-0.20154 0.852661,-0.48059 0.604615,-0.26355 0.744141,-1.44178 0.248047,-2.01538 0.248047,-5.73608 0,-3.78271 -0.217041,-4.86792 -0.217041,-1.0852 -1.085205,-1.6123 -0.651123,-0.37207 -0.89917,-0.69764 -0.232544,-0.34106 -0.232544,-0.82165 0,-0.75964 0.728638,-1.31775 0.728637,-0.57361 2.325439,-1.0542 1.069702,-0.32556 2.775024,-0.62012 1.70532,-0.29455 2.48047,-0.29455 1.22473,0 1.22473,1.51928 0,0.4961 -0.15503,2.27894 -0.20154,2.77502 -0.23254,5.08496 z"
         style="font-style:normal;font-variant:normal;font-weight:normal;font-stretch:normal;font-size:31.75px;font-family:'Cooper Black';-inkscape-font-specification:'Cooper Black, Normal';font-variant-ligatures:normal;font-variant-caps:normal;font-variant-numeric:normal;font-variant-east-asian:normal;fill:#ffffff;fill-opacity:1;stroke-width:0.264583"
         id="path886" />
      <path
         d="m 115.15471,124.83777 q 2.69751,0 4.57336,1.36426 0.99219,0.72863 1.37976,1.67431 0.40308,0.93018 0.40308,2.57349 l -0.031,2.30994 q 0,2.40295 0.34107,3.11608 0.17053,0.34107 0.32556,0.43409 0.15503,0.093 0.65112,0.17053 0.4961,0.0775 0.4961,0.65112 0,0.74414 -0.60462,1.55029 -0.58911,0.80616 -1.53479,1.34876 -1.16272,0.68213 -2.43396,0.68213 -1.6278,0 -2.57348,-1.11621 -0.32557,-0.40308 -0.60462,-0.40308 -0.31006,0 -0.82165,0.38757 -1.5503,1.13172 -3.51917,1.13172 -2.03088,0 -3.28662,-0.86817 -0.82165,-0.5736 -1.30225,-1.48828 -0.48059,-0.93017 -0.48059,-1.93786 0,-1.61231 1.30225,-2.85254 2.03088,-1.95337 6.07715,-1.96887 0.89917,0 1.13171,-0.17054 0.23255,-0.18603 0.23255,-0.83715 0,-1.64332 -0.34107,-2.37195 -0.34106,-0.74414 -1.11621,-0.74414 -0.46509,0 -0.83716,0.27905 -0.35656,0.27905 -0.89917,1.02319 -1.37976,1.96887 -2.88354,1.96887 -0.75965,0 -1.24024,-0.44958 -0.48059,-0.44959 -0.48059,-1.17822 0,-0.74414 0.58911,-1.48828 0.60462,-0.74414 1.62781,-1.30225 2.80603,-1.48828 5.86011,-1.48828 z m -1.0387,8.97619 q -0.68213,0 -1.19372,0.55811 -0.4961,0.55811 -0.4961,1.33325 0,0.74414 0.35657,1.20923 0.35657,0.44959 0.94568,0.44959 1.24023,0 1.24023,-2.0929 0,-0.85266 -0.18603,-1.14722 -0.17053,-0.29455 -0.66663,-0.31006 z"
         style="font-style:normal;font-variant:normal;font-weight:normal;font-stretch:normal;font-size:31.75px;font-family:'Cooper Black';-inkscape-font-specification:'Cooper Black, Normal';font-variant-ligatures:normal;font-variant-caps:normal;font-variant-numeric:normal;font-variant-east-asian:normal;fill:#ffffff;fill-opacity:1;stroke-width:0.264583"
         id="path888" />
    </g>
  </g>
</svg>
